# AST/ASF file generated using VICON BodyLanguage
# -----------------------------------------------
:version 1.10
:name VICON
:units
  mass 1.0
  length 0.45
  angle deg
:documentation
   .ast/.asf automatically generated from VICON data using
   VICON BodyBuilder and BodyLanguage model FoxedUp or BRILLIANT.MOD
:root
   order TX TY TZ RX RY RZ
   axis XYZ
   position 0 0 0  
   orientation 0 0 0 
:bonedata
  begin
     id 1 
     name lhipjoint
     direction 0.528046 -0.759594 0.379717 
     length 2.39752 
     axis 0 0 0  XYZ
  end
  begin
     id 2 
     name lfemur
     direction 0.34202 -0.939693 0  
     length 7.31175  
     axis 0 0 20  XYZ
    dof rx ry rz
    limits (-160.0 20.0)
           (-70.0 70.0)
           (-60.0 70.0)
  end
  begin
     id 3 
     name ltibia
     direction 0.34202 -0.939693 0   
     length 7.52482   
     axis 0 0 20   XYZ
    dof rx
    limits (-10.0 170.0)
  end
  begin
     id 4 
     name lfoot
     direction 0.0675379 -0.185559 0.980309   
     length 2.00961   
     axis -90 7.62852e-016 20   XYZ
    dof rx rz
    limits (-45.0 90.0)
           (-70.0 20.0)
  end
  begin
     id 5 
     name ltoes
     direction 1.5352e-011 -4.22286e-011 1   
     length 1.01383   
     axis -90 7.62852e-016 20   XYZ
    dof rx
    limits (-90.0 20.0)
  end
  begin
     id 6 
     name rhipjoint
     direction -0.510274 -0.769251 0.384544   
     length 2.36742  
     axis 0 0 0  XYZ 
  end
  begin
     id 7 
     name rfemur
     direction -0.34202 -0.939693 0   
     length 7.45325   
     axis 0 0 -20   XYZ
    dof rx ry rz
    limits (-160.0 20.0)
           (-70.0 70.0)
           (-70.0 60.0)
  end
  begin
     id 8 
     name rtibia
     direction -0.34202 -0.939693 0   
     length 7.49587   
     axis 0 0 -20   XYZ
    dof rx
    limits (-10.0 170.0)
 end
 begin
     id 9 
     name rfoot
     direction -0.106475 -0.292536 0.950308   
     length 2.20898  
     axis -90 -7.62852e-016 -20   XYZ
    dof rx rz
    limits (-45.0 90.0)
           (-20.0 70.0)
  end
  begin
     id 10 
     name rtoes
     direction -1.53597e-011 -4.22023e-011 1   
     length 1.10065   
     axis -90 -7.62852e-016 -20   XYZ
    dof rx
    limits (-90.0 20.0)
  end
  begin
     id 11 
     name lowerback
     direction 0.0260024 0.998026 -0.0571652   
     length 2.11214   
     axis 0 0 0   XYZ
    dof rx ry rz
    limits (-20.0 45.0)
           (-30.0 30.0)
           (-30.0 30.0)
  end
  begin
     id 12 
     name upperback
     direction 0.0216202 0.999542 -0.0211766   
     length 2.11689   
     axis 0 0 0   XYZ
    dof rx ry rz
    limits (-20.0 45.0)
           (-30.0 30.0)
           (-30.0 30.0)
  end
  begin
     id 13 
     name thorax
     direction 0.00883312 0.999944 0.00589057   
     length 2.11821   
     axis 0 0 0   XYZ
    dof rx ry rz
    limits (-20.0 45.0)
           (-30.0 30.0)
           (-30.0 30.0)
  end
  begin
     id 14 
     name lowerneck
     direction -0.059386 0.994433 0.0870401   
     length 1.81176   
     axis 0 0 0   XYZ
    dof rx ry rz
    limits (-20.0 45.0)
           (-30.0 30.0)
           (-30.0 30.0)
  end
  begin
     id 15 
     name upperneck
     direction 0.0506457 0.97328 -0.223967   
     length 1.82382   
     axis 0 0 0   XYZ
    dof rx ry rz
    limits (-20.0 45.0)
           (-30.0 30.0)
           (-30.0 30.0)
  end
  begin
     id 16
     name head
     direction 0.0205902 0.996147 -0.0852487  
     length 1.84805  
     axis 0 0 0   XYZ
    dof rx ry rz
    limits (-20.0 45.0)
           (-30.0 30.0)
           (-30.0 30.0)
  end
  begin
     id 17 
     name lclavicle
     direction 0.949493 0.303881 -0.0782325  
     length 3.60584  
     axis 0 0 0   XYZ
    dof ry rz
    limits (-20.0 10.0)
           (0.0 20.0)
  end
  begin
     id 18 
     name lhumerus
     direction 1 -4.48965e-011 1.48782e-027   
     length 4.95681   
     axis 180 -30 -90   XYZ
    dof rx ry rz
    limits (-60.0 90.0)
           (-90.0 90.0)
           (-90.0 90.0)
  end
  begin
     id 19
     name lradius
     direction 1 -4.48952e-011 2.06528e-027   
     length 3.40915   
     axis 180 -30 -90   XYZ
    dof rx
    limits (-10.0 170.0)
  end
  begin
     id 20
     name lwrist
     direction 1 -4.48964e-011 1.28021e-027   
     length 1.70457   
     axis -1.61767e-015 90 90   XYZ
    dof ry
    limits (-180.0 0.0)
 end
  begin
     id 21 
     name lhand
     direction 1 -4.49094e-011 2.54887e-027   
     length 0.616403   
     axis -1.63363e-015 90 90   XYZ
    dof rx rz
    limits (-90.0 90.0)
           (-45.0 45.0)
  end
  begin
     id 22 
     name lfingers
     direction 1 -4.49002e-011 5.11407e-027   
     length 0.49696   
     axis -3.26723e-015 90 90   XYZ
    dof rx
    limits (0.0 90.0)
  end
  begin
     id 23
     name lthumb
     direction 0.707107 -6.34998e-011 0.707107   
     length 0.713539   
     axis -90 45 -2.25915e-014   XYZ
    dof rx rz
    limits (-45.0 45.0)
           (-45.0 45.0)
  end
  begin
     id 24 
     name rclavicle
     direction -0.937751 0.334612 -0.0930482   
     length 3.46287  
     axis 0 0 0   XYZ 
    dof ry rz
    limits (-10.0 20.0)
           (-20.0 0.0)
  end
  begin
     id 25 
     name rhumerus
     direction -1 -4.48962e-011 3.59972e-027  
     length 5.352   
     axis 180 30 90   XYZ
    dof rx ry rz
    limits (-90.0 60.0)
           (-90.0 90.0)
           (-90.0 90.0)
  end
  begin
     id 26 
     name rradius
     direction -1 -4.48987e-011 -3.76925e-027   
     length 3.43721   
     axis 180 30 90   XYZ
    dof rx
    limits (-10.0 170.0)
  end
  begin
     id 27 
     name rwrist
     direction -1 -4.48943e-011 1.28112e-027   
     length 1.7186   
     axis -1.61767e-015 -90 -90   XYZ
    dof ry
    limits (-180.0 0.0)
  end
  begin
     id 28
     name rhand
     direction -1 -4.49027e-011 2.55483e-027   
     length 0.72009   
     axis -1.63363e-015 -90 -90   XYZ
    dof rx rz
    limits (-90.0 90.0)
           (-45.0 45.0)
  end
  begin
     id 29
     name rfingers
     direction -1 -4.48827e-011 5.14506e-027   
     length 0.580555   
     axis -3.26723e-015 -90 -90   XYZ
    dof rx
    limits (0.0 90.0)
  end
  begin
     id 30
     name rthumb
     direction -0.707107 -6.34936e-011 0.707107   
     length 0.833564   
     axis -90 -45 2.25915e-014   XYZ
    dof rx rz
    limits (-45.0 45.0)
           (-45.0 45.0)
  end
:hierarchy
  begin
    root lhipjoint rhipjoint lowerback
    lhipjoint lfemur
    lfemur ltibia
    ltibia lfoot
    lfoot ltoes
    rhipjoint rfemur
    rfemur rtibia
    rtibia rfoot
    rfoot rtoes
    lowerback upperback
    upperback thorax
    thorax lowerneck lclavicle rclavicle
    lowerneck upperneck
    upperneck head
    lclavicle lhumerus
    lhumerus lradius
    lradius lwrist
    lwrist lhand lthumb
    lhand lfingers
    rclavicle rhumerus
    rhumerus rradius
    rradius rwrist
    rwrist rhand rthumb
    rhand rfingers
  end

#!OML:ASF H:\Terrain\Patient Classification 1\Terrain2\Thursday\justin.ASF
:FULLY-SPECIFIED
:DEGREES
465
root 19.6102 20.8287 -1.30906 -6.67515 1.6199 -8.88365
lowerback 7.15895 1.20475 8.39085
upperback 3.98558 2.13892 4.29193
thorax 0.278635 1.15962 -0.391609
lowerneck -10.1231 -3.21447 -10.693
upperneck 37.8444 -4.09287 5.79684
head 15.315 -2.46667 3.74839
rclavicle -1.50082e-014 -1.43125e-014
rhumerus -32.1921 -7.73081 -81.1939
rradius 26.2879
rwrist -7.38669
rhand -18.4157 11.3135
rfingers 7.12502
rthumb 7.86917 -18.5201
lclavicle -1.50082e-014 -1.43125e-014
lhumerus -39.1325 13.9234 82.0165
lradius 19.9421
lwrist -5.99486
lhand -12.8721 21.5051
lfingers 7.12502
lthumb 13.2165 51.0662
rfemur 7.48713 0.482719 34.5894
rtibia 14.0603
rfoot -13.045 0.160411
rtoes 18.6697
lfemur -53.3537 8.24812 -11.739
ltibia 96.8902
lfoot -18.3792 -11.9412
ltoes -13.223
466
root 19.6175 20.8266 -1.26472 -6.51776 1.42002 -9.30572
lowerback 7.23298 1.27665 9.01009
upperback 3.96303 2.28243 4.34026
thorax 0.251629 1.23827 -0.692134
lowerneck -10.2611 -3.21903 -10.5245
upperneck 37.8356 -4.06579 5.63865
head 15.3305 -2.44863 3.65297
rclavicle -3.40916e-014 -5.1684e-014
rhumerus -32.0589 -7.53889 -81.3345
rradius 26.3446
rwrist -7.42646
rhand -18.2911 11.5576
rfingers 7.12502
rthumb 7.98937 -18.2714
lclavicle -3.40916e-014 -5.1684e-014
lhumerus -39.1971 13.9724 82.0399
lradius 19.9176
lwrist -6.18035
lhand -12.98 20.8748
lfingers 7.12502
lthumb 13.1125 50.4425
rfemur 7.67731 0.592972 35.047
rtibia 13.6128
rfoot -12.901 0.259827
rtoes 18.3532
lfemur -54.8576 8.37562 -11.528
ltibia 97.03
lfoot -18.7109 -12.1996
ltoes -15.5893
467
root 19.6218 20.8346 -1.21387 -6.39547 1.34687 -8.98435
lowerback 7.22446 1.40195 8.81923
upperback 3.99812 2.43169 4.20898
thorax 0.300737 1.31359 -0.731475
lowerneck -10.3491 -3.26772 -10.3997
upperneck 37.8394 -4.11298 5.51652
head 15.352 -2.4643 3.56997
rclavicle -2.13694e-014 -1.59028e-014
rhumerus -31.9919 -7.48337 -81.384
rradius 26.5663
rwrist -6.96798
rhand -18.3387 10.7702
rfingers 7.12502
rthumb 7.94341 -19.0605
lclavicle -2.13694e-014 -1.59028e-014
lhumerus -39.2359 13.5623 82.3415
lradius 20.0583
lwrist -5.64476
lhand -13.2902 20.2175
lfingers 7.12502
lthumb 12.8135 49.8043
rfemur 7.99214 0.688182 34.7141
rtibia 13.1637
rfoot -13.1316 0.222351
rtoes 17.7485
lfemur -56.0286 8.16718 -12.1465
ltibia 96.8571
lfoot -18.898 -12.2657
ltoes -16.831
468
root 19.6247 20.838 -1.1606 -6.44127 1.31944 -8.49442
lowerback 7.3042 1.49267 8.35888
upperback 4.10552 2.52444 4.136
thorax 0.355205 1.35772 -0.560361
lowerneck -10.3595 -3.32218 -10.5973
upperneck 37.845 -4.14973 5.54848
head 15.3711 -2.50274 3.61378
rclavicle -1.87852e-014 1.63003e-014
rhumerus -31.869 -7.17751 -81.4023
rradius 26.774
rwrist -6.95627
rhand -18.4672 9.37999
rfingers 7.12502
rthumb 7.81939 -20.4554
lclavicle -1.87852e-014 1.63003e-014
lhumerus -39.2965 13.1445 82.8273
lradius 20.4867
lwrist -4.97665
lhand -12.8704 20.5606
lfingers 7.12502
lthumb 13.2181 50.1215
rfemur 8.52926 0.905573 34.2308
rtibia 12.7492
rfoot -13.2912 0.126779
rtoes 18.5607
lfemur -56.8244 7.8892 -12.9066
ltibia 96.4275
lfoot -19.2683 -12.272
ltoes -17.0161
469
root 19.6263 20.8408 -1.10933 -6.50232 1.10163 -8.57123
lowerback 7.49664 1.5497 8.44441
upperback 4.15462 2.62443 4.21253
thorax 0.307998 1.40745 -0.539586
lowerneck -10.2758 -3.31079 -10.7688
upperneck 37.763 -4.12249 5.62728
head 15.3155 -2.50414 3.68051
rclavicle -3.21534e-014 -1.39149e-014
rhumerus -31.7168 -6.75663 -81.4949
rradius 26.7815
rwrist -7.01923
rhand -18.9895 9.194
rfingers 7.12502
rthumb 7.31528 -20.6595
lclavicle -3.21534e-014 -1.39149e-014
lhumerus -39.3941 13.022 83.1044
lradius 20.7502
lwrist -4.5114
lhand -12.5844 20.6653
lfingers 7.12502
lthumb 13.4938 50.2082
rfemur 8.94251 1.01787 34.375
rtibia 12.5844
rfoot -13.3012 0.0870375
rtoes 18.7056
lfemur -57.6703 7.90911 -12.9182
ltibia 95.8542
lfoot -19.4393 -12.8995
ltoes -14.5591
470
root 19.6259 20.849 -1.05934 -6.48389 0.865472 -8.69438
lowerback 7.71662 1.60258 8.59292
upperback 4.09881 2.73482 4.22068
thorax 0.143413 1.45776 -0.629172
lowerneck -10.0852 -3.23155 -10.7672
upperneck 37.6148 -4.06152 5.73556
head 15.1903 -2.46296 3.73209
rclavicle 7.00716e-015 2.06736e-014
rhumerus -31.6685 -6.20463 -81.7569
rradius 26.5862
rwrist -7.12748
rhand -19.1361 10.3572
rfingers 7.12502
rthumb 7.17378 -19.5012
lclavicle 7.00716e-015 2.06736e-014
lhumerus -39.508 13.0673 83.1039
lradius 20.7783
lwrist -4.4467
lhand -12.6861 20.5771
lfingers 7.12502
lthumb 13.3957 50.1264
rfemur 9.1674 1.11267 34.594
rtibia 12.4484
rfoot -13.2058 -0.0824029
rtoes 16.3809
lfemur -58.505 7.89276 -12.8114
ltibia 95.1038
lfoot -19.2584 -13.706
ltoes -12.4756
471
root 19.6281 20.8509 -1.00665 -6.38823 0.745293 -8.50561
lowerback 7.78718 1.71747 8.54577
upperback 4.09598 2.89115 4.08597
thorax 0.117125 1.53532 -0.755815
lowerneck -10.0205 -3.25169 -10.8668
upperneck 37.5114 -4.16154 5.98753
head 15.1442 -2.48525 3.83984
rclavicle -7.65321e-015 -1.59028e-014
rhumerus -31.5883 -5.97368 -81.958
rradius 26.516
rwrist -7.19545
rhand -18.6036 11.3881
rfingers 7.12502
rthumb 7.6878 -18.4522
lclavicle -7.65321e-015 -1.59028e-014
lhumerus -39.4375 13.2668 82.8842
lradius 20.8211
lwrist -5.82858
lhand -11.3664 21.9803
lfingers 7.12502
lthumb 14.6675 51.4415
rfemur 9.40343 1.41242 34.4613
rtibia 12.1111
rfoot -13.0587 -0.240156
rtoes 15.6797
lfemur -59.2405 7.67389 -13.0672
ltibia 94.1959
lfoot -18.8298 -14.3874
ltoes -11.2019
472
root 19.6328 20.8369 -0.953412 -6.32439 0.543876 -8.6838
lowerback 7.8296 1.85338 8.92336
upperback 4.18784 3.09268 4.04542
thorax 0.23098 1.64763 -1.01586
lowerneck -10.1813 -3.35165 -10.8958
upperneck 37.4689 -4.33034 6.11903
head 15.1861 -2.54045 3.87341
rclavicle 5.46658e-015 7.55382e-015
rhumerus -31.3573 -6.16028 -82.0386
rradius 26.5893
rwrist -7.05495
rhand -18.3681 11.8815
rfingers 7.12502
rthumb 7.91502 -17.9503
lclavicle 5.46658e-015 7.55382e-015
lhumerus -39.2845 13.2503 82.8114
lradius 21.0502
lwrist -7.14117
lhand -9.60675 23.5038
lfingers 7.12502
lthumb 16.3623 52.8336
rfemur 9.82054 1.70398 34.7375
rtibia 11.6681
rfoot -13.0668 -0.405298
rtoes 16.2875
lfemur -59.9932 7.62641 -12.9399
ltibia 93.2381
lfoot -18.6224 -14.8166
ltoes -11.264
473
root 19.6351 20.8282 -0.898667 -6.27925 0.346158 -8.92723
lowerback 7.82182 1.9361 9.25892
upperback 4.27931 3.21515 4.0753
thorax 0.361612 1.72031 -1.17201
lowerneck -10.2052 -3.37039 -10.6954
upperneck 37.3452 -4.32433 5.90901
head 15.1175 -2.5327 3.7425
rclavicle -3.5334e-014 -3.37934e-014
rhumerus -30.9911 -6.35691 -82.0875
rradius 26.4583
rwrist -6.66521
rhand -18.2911 12.192
rfingers 7.12502
rthumb 7.98941 -17.637
lclavicle -3.5334e-014 -3.37934e-014
lhumerus -39.2021 12.5341 83.3419
lradius 21.2869
lwrist -5.82274
lhand -10.4399 22.8069
lfingers 7.12502
lthumb 15.56 52.201
rfemur 10.2281 2.01565 35.1058
rtibia 11.2536
rfoot -13.0291 -0.543066
rtoes 15.6184
lfemur -60.6634 7.5514 -12.7074
ltibia 92.175
lfoot -18.815 -14.9567
ltoes -12.8158
